<?xml version="1.0" standalone="no"?>
<!DOCTYPE svg PUBLIC "-//W3C//DTD SVG 20010904//EN"
 "http://www.w3.org/TR/2001/REC-SVG-20010904/DTD/svg10.dtd">
<svg version="1.0" xmlns="http://www.w3.org/2000/svg"
 width="2816.000000pt" height="1536.000000pt" viewBox="0 0 2816.000000 1536.000000"
 preserveAspectRatio="xMidYMid meet">

<g transform="translate(0.000000,1536.000000) scale(0.100000,-0.100000)"
fill="#6b2d3c" stroke="none">
<path d="M19890 9940 c-377 -51 -666 -176 -965 -417 -118 -95 -240 -220 -388
-398 -245 -295 -396 -583 -443 -848 -27 -153 -6 -358 54 -516 14 -40 -14 -128
-93 -289 -75 -154 -147 -267 -247 -389 -75 -93 -88 -117 -88 -175 0 -56 32
-101 85 -118 80 -26 139 18 274 205 106 146 190 286 227 380 15 39 30 73 34
78 3 4 37 -20 76 -53 155 -136 359 -253 517 -296 406 -111 704 66 887 530 98
248 160 681 160 1116 0 160 -2 190 -18 219 -51 95 -184 89 -234 -10 -16 -29
-18 -64 -18 -255 0 -527 -89 -946 -251 -1185 -79 -116 -167 -168 -301 -176
-74 -5 -98 -2 -155 17 -147 49 -261 117 -395 237 -146 130 -214 238 -244 384
-55 270 58 573 344 926 208 258 414 451 594 558 252 150 549 225 893 225 309
0 580 -63 825 -191 244 -128 357 -260 445 -524 48 -141 87 -215 153 -286 65
-71 139 -121 245 -166 215 -91 401 -174 642 -287 l220 -102 -1 -75 c-3 -202
-132 -494 -297 -674 -122 -133 -228 -199 -399 -249 -142 -41 -281 -50 -536
-35 -180 10 -238 10 -298 0 -143 -24 -296 -90 -393 -169 -85 -69 -198 -239
-254 -382 -40 -101 -87 -301 -109 -460 -25 -183 -37 -589 -18 -644 25 -76 125
-109 197 -65 58 36 60 48 66 344 8 401 44 592 153 805 80 155 167 239 294 282
58 19 81 21 210 18 353 -10 520 -5 636 18 133 26 210 51 318 101 353 166 610
544 691 1016 18 105 19 194 4 249 -13 48 -80 121 -151 163 -48 29 -415 199
-743 343 -194 85 -226 103 -275 157 -48 51 -59 72 -116 228 -96 263 -260 461
-503 605 -165 98 -451 193 -711 235 -131 21 -424 18 -600 -5z"/>
<path d="M25104 9813 c-27 -5 -219 -150 -367 -276 -224 -191 -396 -409 -537
-682 -73 -140 -74 -141 -207 -252 -245 -204 -387 -466 -508 -938 -73 -286
-114 -407 -189 -560 -99 -199 -206 -333 -434 -542 -47 -42 -55 -55 -59 -93 -4
-36 0 -52 19 -80 31 -47 86 -73 133 -64 108 20 412 345 538 574 90 164 178
406 252 695 64 251 82 308 139 429 87 187 215 341 374 451 l73 50 80 159 c90
176 125 235 208 346 59 80 262 288 348 359 63 51 52 78 93 -234 44 -331 55
-404 68 -417 6 -6 58 -15 114 -19 358 -28 762 -213 926 -424 77 -100 111 -179
147 -345 44 -201 102 -296 294 -483 137 -134 132 -117 81 -257 -111 -307 -264
-436 -566 -475 -369 -48 -512 -102 -650 -247 -161 -170 -229 -391 -241 -788
-3 -108 -3 -212 1 -231 8 -45 58 -97 101 -105 43 -8 96 10 126 42 23 24 24 34
31 222 7 200 27 361 55 455 40 134 120 241 221 295 75 40 144 57 337 82 189
25 223 32 310 65 193 72 351 216 452 410 100 193 155 423 123 512 -6 15 -82
98 -168 183 -185 182 -210 221 -248 392 -33 145 -47 185 -100 288 -161 313
-522 545 -994 640 -63 13 -118 26 -122 29 -11 9 -71 447 -93 676 -9 89 -28
129 -70 149 -32 16 -49 17 -91 9z"/>
<path d="M1812 9036 c-231 -44 -456 -166 -572 -310 -28 -33 -50 -63 -50 -67 0
-3 57 -50 126 -105 69 -54 139 -110 154 -123 l29 -23 76 76 c58 57 96 86 158
116 97 47 156 60 284 60 240 0 359 -89 357 -266 -1 -86 -28 -141 -87 -180 -80
-53 -107 -58 -337 -64 l-215 -5 0 -174 0 -174 165 2 c246 3 368 -24 454 -99
134 -118 100 -332 -66 -416 -74 -37 -161 -54 -288 -54 -133 0 -200 14 -310 66
-87 41 -147 88 -191 149 -18 25 -36 45 -41 45 -11 0 -266 -208 -287 -234 -18
-22 -4 -50 62 -123 164 -179 388 -280 680 -303 232 -19 456 15 621 94 145 69
241 160 302 285 74 155 72 368 -7 522 -44 86 -195 218 -269 234 -17 4 -30 10
-30 13 0 4 20 18 45 31 102 54 213 210 235 330 50 266 -63 496 -300 614 -148
73 -222 88 -440 93 -130 2 -207 -1 -258 -10z"/>
<path d="M12372 9019 c-8 -9 -53 -90 -99 -180 -47 -90 -150 -290 -230 -444
-80 -154 -180 -346 -222 -427 -42 -81 -78 -148 -81 -148 -3 0 -73 130 -156
288 -83 158 -227 430 -319 605 l-168 317 -243 0 -244 0 0 -1090 0 -1090 225 0
225 0 -2 695 c-2 382 -1 695 2 695 6 0 94 -163 215 -395 32 -60 84 -157 115
-215 31 -58 86 -159 120 -225 95 -181 103 -192 137 -190 15 1 73 3 129 3 l101
2 168 328 c93 180 212 411 265 514 l95 186 3 -699 2 -699 230 0 230 0 0 1090
0 1089 -242 3 c-214 3 -244 1 -256 -13z"/>
<path d="M5470 8471 c-408 -87 -674 -448 -647 -881 24 -376 289 -675 668 -755
104 -22 312 -19 424 5 173 38 347 146 447 277 54 70 71 101 65 117 -3 6 -82
36 -176 66 l-172 54 -16 -25 c-99 -141 -234 -198 -423 -178 -180 20 -328 159
-357 337 l-6 32 605 0 c530 0 607 2 618 15 20 24 7 260 -19 360 -11 44 -42
123 -67 175 -40 82 -60 108 -144 191 -82 83 -110 103 -191 143 -131 63 -237
86 -397 85 -82 0 -158 -7 -212 -18z m282 -312 c74 -16 155 -59 206 -110 46
-46 97 -142 108 -201 l6 -38 -397 0 -398 0 7 41 c4 22 20 68 37 101 80 159
257 244 431 207z"/>
<path d="M7502 8471 c-118 -34 -246 -118 -317 -209 l-35 -45 0 121 c0 66 -3
123 -8 125 -4 3 -91 3 -195 0 l-187 -6 0 -1123 0 -1124 78 0 c44 0 140 3 215
7 l137 6 0 426 0 425 48 -49 c70 -75 190 -150 285 -181 68 -22 101 -27 192
-27 132 -1 206 16 323 74 206 101 360 351 394 640 22 185 -21 415 -108 580
-28 53 -66 102 -134 170 -80 81 -108 103 -180 137 -47 23 -114 48 -150 56 -91
22 -277 20 -358 -3z m127 -351 c84 -14 152 -50 223 -118 93 -88 138 -206 138
-358 0 -185 -96 -356 -237 -422 -50 -23 -71 -27 -153 -27 -85 0 -101 3 -154
29 -80 39 -184 144 -220 221 -28 59 -28 64 -28 233 1 205 9 229 107 327 66 66
131 103 203 115 26 4 49 8 52 9 3 0 34 -4 69 -9z"/>
<path d="M9240 8469 c-52 -11 -125 -38 -189 -70 -89 -44 -116 -63 -195 -142
-120 -121 -177 -220 -223 -388 -26 -92 -25 -347 1 -444 81 -306 323 -531 634
-591 112 -21 319 -18 422 7 173 41 337 140 443 269 83 100 154 274 178 434 24
160 -24 401 -108 546 -47 80 -207 243 -285 288 -172 101 -460 140 -678 91z
m372 -381 c156 -72 248 -236 248 -443 0 -92 -15 -157 -55 -235 -40 -79 -69
-114 -128 -153 -116 -78 -254 -89 -380 -30 -152 72 -237 223 -237 423 0 224
114 400 300 461 14 5 63 7 110 6 67 -2 97 -9 142 -29z"/>
<path d="M15916 8469 c-112 -27 -189 -71 -277 -159 l-76 -75 -6 113 c-3 63 -7
115 -9 116 -2 2 -87 1 -190 -2 l-188 -4 0 -1119 0 -1119 68 -1 c37 -1 135 -2
217 -3 l150 -1 3 426 2 426 73 -71 c126 -125 262 -180 437 -180 416 1 702 309
726 784 15 274 -72 516 -246 690 -98 98 -185 149 -306 180 -103 27 -268 26
-378 -1z m204 -366 c131 -44 244 -181 271 -328 17 -89 6 -248 -20 -317 -44
-115 -148 -222 -250 -256 -49 -17 -160 -15 -217 5 -114 38 -233 150 -273 258
-18 48 -21 78 -21 219 0 161 0 163 30 223 88 175 292 259 480 196z"/>
<path d="M3172 7656 l3 -808 527 1 c491 2 532 3 598 22 265 73 398 262 351
499 -30 152 -104 244 -233 291 l-58 22 47 32 c72 49 113 94 143 160 88 190 5
442 -177 533 -102 51 -102 51 -671 54 l-532 3 2 -809z m862 484 c118 -27 172
-150 109 -247 -50 -78 -70 -83 -317 -83 l-216 0 0 170 0 170 193 0 c105 0 210
-5 231 -10z m112 -636 c63 -46 88 -115 74 -195 -9 -49 -34 -85 -80 -116 -32
-22 -40 -23 -284 -23 l-251 0 2 177 c2 98 3 179 3 181 0 2 114 2 254 0 239 -3
256 -4 282 -24z"/>
<path d="M13448 8462 l-198 -2 0 -805 0 -805 208 0 209 0 60 88 c34 48 177
250 320 449 142 200 273 384 291 410 l32 47 0 -497 0 -497 220 0 220 0 -2 808
-3 807 -195 -2 -195 -3 -55 -75 c-60 -81 -153 -211 -462 -645 l-203 -285 -5
505 c-5 497 -5 505 -25 505 -11 0 -109 -1 -217 -3z"/>
</g>
</svg>
